<?xml version="1.0" standalone="no"?><svg xmlns="http://www.w3.org/2000/svg" viewBox="0 0 1440 320"><path fill="#df405a" fill-opacity="1" d="M0,128L6.2,122.7C12.3,117,25,107,37,101.3C49.2,96,62,96,74,112C86.2,128,98,160,111,160C123.1,160,135,128,148,117.3C160,107,172,117,185,138.7C196.9,160,209,192,222,208C233.8,224,246,224,258,240C270.8,256,283,288,295,298.7C307.7,309,320,299,332,288C344.6,277,357,267,369,272C381.5,277,394,299,406,272C418.5,245,431,171,443,117.3C455.4,64,468,32,480,48C492.3,64,505,128,517,160C529.2,192,542,192,554,170.7C566.2,149,578,107,591,112C603.1,117,615,171,628,186.7C640,203,652,181,665,186.7C676.9,192,689,224,702,208C713.8,192,726,128,738,133.3C750.8,139,763,213,775,224C787.7,235,800,181,812,133.3C824.6,85,837,43,849,42.7C861.5,43,874,85,886,101.3C898.5,117,911,107,923,106.7C935.4,107,948,117,960,149.3C972.3,181,985,235,997,261.3C1009.2,288,1022,288,1034,245.3C1046.2,203,1058,117,1071,106.7C1083.1,96,1095,160,1108,181.3C1120,203,1132,181,1145,186.7C1156.9,192,1169,224,1182,218.7C1193.8,213,1206,171,1218,149.3C1230.8,128,1243,128,1255,160C1267.7,192,1280,256,1292,288C1304.6,320,1317,320,1329,272C1341.5,224,1354,128,1366,106.7C1378.5,85,1391,139,1403,170.7C1415.4,203,1428,213,1434,218.7L1440,224L1440,320L1433.8,320C1427.7,320,1415,320,1403,320C1390.8,320,1378,320,1366,320C1353.8,320,1342,320,1329,320C1316.9,320,1305,320,1292,320C1280,320,1268,320,1255,320C1243.1,320,1231,320,1218,320C1206.2,320,1194,320,1182,320C1169.2,320,1157,320,1145,320C1132.3,320,1120,320,1108,320C1095.4,320,1083,320,1071,320C1058.5,320,1046,320,1034,320C1021.5,320,1009,320,997,320C984.6,320,972,320,960,320C947.7,320,935,320,923,320C910.8,320,898,320,886,320C873.8,320,862,320,849,320C836.9,320,825,320,812,320C800,320,788,320,775,320C763.1,320,751,320,738,320C726.2,320,714,320,702,320C689.2,320,677,320,665,320C652.3,320,640,320,628,320C615.4,320,603,320,591,320C578.5,320,566,320,554,320C541.5,320,529,320,517,320C504.6,320,492,320,480,320C467.7,320,455,320,443,320C430.8,320,418,320,406,320C393.8,320,382,320,369,320C356.9,320,345,320,332,320C320,320,308,320,295,320C283.1,320,271,320,258,320C246.2,320,234,320,222,320C209.2,320,197,320,185,320C172.3,320,160,320,148,320C135.4,320,123,320,111,320C98.5,320,86,320,74,320C61.5,320,49,320,37,320C24.6,320,12,320,6,320L0,320Z"></path></svg>