<?xml version="1.0" standalone="no"?><svg xmlns="http://www.w3.org/2000/svg" viewBox="0 0 1440 320"><path fill="#df405a" fill-opacity="1" d="M0,192L6.2,197.3C12.3,203,25,213,37,218.7C49.2,224,62,224,74,192C86.2,160,98,96,111,85.3C123.1,75,135,117,148,128C160,139,172,117,185,128C196.9,139,209,181,222,186.7C233.8,192,246,160,258,128C270.8,96,283,64,295,48C307.7,32,320,32,332,26.7C344.6,21,357,11,369,53.3C381.5,96,394,192,406,202.7C418.5,213,431,139,443,133.3C455.4,128,468,192,480,192C492.3,192,505,128,517,112C529.2,96,542,128,554,149.3C566.2,171,578,181,591,181.3C603.1,181,615,171,628,144C640,117,652,75,665,69.3C676.9,64,689,96,702,133.3C713.8,171,726,213,738,229.3C750.8,245,763,235,775,208C787.7,181,800,139,812,144C824.6,149,837,203,849,197.3C861.5,192,874,128,886,117.3C898.5,107,911,149,923,144C935.4,139,948,85,960,74.7C972.3,64,985,96,997,112C1009.2,128,1022,128,1034,122.7C1046.2,117,1058,107,1071,85.3C1083.1,64,1095,32,1108,64C1120,96,1132,192,1145,224C1156.9,256,1169,224,1182,197.3C1193.8,171,1206,149,1218,149.3C1230.8,149,1243,171,1255,202.7C1267.7,235,1280,277,1292,272C1304.6,267,1317,213,1329,213.3C1341.5,213,1354,267,1366,272C1378.5,277,1391,235,1403,229.3C1415.4,224,1428,256,1434,272L1440,288L1440,0L1433.8,0C1427.7,0,1415,0,1403,0C1390.8,0,1378,0,1366,0C1353.8,0,1342,0,1329,0C1316.9,0,1305,0,1292,0C1280,0,1268,0,1255,0C1243.1,0,1231,0,1218,0C1206.2,0,1194,0,1182,0C1169.2,0,1157,0,1145,0C1132.3,0,1120,0,1108,0C1095.4,0,1083,0,1071,0C1058.5,0,1046,0,1034,0C1021.5,0,1009,0,997,0C984.6,0,972,0,960,0C947.7,0,935,0,923,0C910.8,0,898,0,886,0C873.8,0,862,0,849,0C836.9,0,825,0,812,0C800,0,788,0,775,0C763.1,0,751,0,738,0C726.2,0,714,0,702,0C689.2,0,677,0,665,0C652.3,0,640,0,628,0C615.4,0,603,0,591,0C578.5,0,566,0,554,0C541.5,0,529,0,517,0C504.6,0,492,0,480,0C467.7,0,455,0,443,0C430.8,0,418,0,406,0C393.8,0,382,0,369,0C356.9,0,345,0,332,0C320,0,308,0,295,0C283.1,0,271,0,258,0C246.2,0,234,0,222,0C209.2,0,197,0,185,0C172.3,0,160,0,148,0C135.4,0,123,0,111,0C98.5,0,86,0,74,0C61.5,0,49,0,37,0C24.6,0,12,0,6,0L0,0Z"></path></svg>